<svg width="35" height="35" viewBox="0 0 35 35" fill="none" xmlns="http://www.w3.org/2000/svg">
<path fill-rule="evenodd" clip-rule="evenodd" d="M7.29182 13.125C7.29182 10.4176 8.36734 7.82105 10.2818 5.90662C12.1962 3.99218 14.7927 2.91666 17.5002 2.91666C20.2076 2.91666 22.8041 3.99218 24.7185 5.90662C26.633 7.82105 27.7085 10.4176 27.7085 13.125V18.6142L30.3656 23.9283C30.4879 24.1729 30.5456 24.4447 30.5334 24.7179C30.5211 24.9911 30.4391 25.2566 30.2954 25.4892C30.1516 25.7219 29.9507 25.9139 29.7118 26.047C29.473 26.1802 29.204 26.25 28.9306 26.25H23.1497C22.8253 27.5016 22.0945 28.6101 21.072 29.4014C20.0495 30.1926 18.7931 30.622 17.5002 30.622C16.2072 30.622 14.9508 30.1926 13.9283 29.4014C12.9058 28.6101 12.175 27.5016 11.8506 26.25H6.06974C5.79627 26.25 5.52733 26.1802 5.28846 26.047C5.04959 25.9139 4.84873 25.7219 4.70495 25.4892C4.56117 25.2566 4.47924 24.9911 4.46695 24.7179C4.45466 24.4447 4.51242 24.1729 4.63474 23.9283L7.29182 18.6142V13.125ZM14.9743 26.25C15.2303 26.6934 15.5985 27.0615 16.0419 27.3175C16.4853 27.5735 16.9882 27.7082 17.5002 27.7082C18.0121 27.7082 18.515 27.5735 18.9584 27.3175C19.4018 27.0615 19.77 26.6934 20.026 26.25H14.9743ZM17.5002 5.83333C15.5663 5.83333 13.7116 6.60156 12.3442 7.96901C10.9767 9.33646 10.2085 11.1911 10.2085 13.125V18.6142C10.2085 19.0667 10.1031 19.5131 9.90078 19.9179L8.19453 23.3333H26.8072L25.101 19.9179C24.8981 19.5132 24.7923 19.0669 24.7918 18.6142V13.125C24.7918 11.1911 24.0236 9.33646 22.6561 7.96901C21.2887 6.60156 19.434 5.83333 17.5002 5.83333Z" fill="#0077B5"/>
</svg>
