<svg width="27" height="29" viewBox="0 0 27 29" fill="none" xmlns="http://www.w3.org/2000/svg">
<path fill-rule="evenodd" clip-rule="evenodd" d="M3.29182 11.125C3.29182 8.41758 4.36734 5.82105 6.28177 3.90662C8.1962 1.99218 10.7927 0.916664 13.5002 0.916664C16.2076 0.916664 18.8041 1.99218 20.7185 3.90662C22.633 5.82105 23.7085 8.41758 23.7085 11.125V16.6142L26.3656 21.9283C26.4879 22.1729 26.5456 22.4447 26.5334 22.7179C26.5211 22.9911 26.4391 23.2566 26.2954 23.4892C26.1516 23.7219 25.9507 23.9139 25.7118 24.047C25.473 24.1802 25.204 24.25 24.9306 24.25H19.1497C18.8253 25.5016 18.0945 26.6101 17.072 27.4014C16.0495 28.1926 14.7931 28.622 13.5002 28.622C12.2072 28.622 10.9508 28.1926 9.92831 27.4014C8.90578 26.6101 8.17496 25.5016 7.85057 24.25H2.06974C1.79627 24.25 1.52733 24.1802 1.28846 24.047C1.04959 23.9139 0.848729 23.7219 0.704948 23.4892C0.561167 23.2566 0.479241 22.9911 0.466953 22.7179C0.454664 22.4447 0.51242 22.1729 0.634736 21.9283L3.29182 16.6142V11.125ZM10.9743 24.25C11.2303 24.6934 11.5985 25.0615 12.0419 25.3175C12.4853 25.5735 12.9882 25.7082 13.5002 25.7082C14.0121 25.7082 14.515 25.5735 14.9584 25.3175C15.4018 25.0615 15.77 24.6934 16.026 24.25H10.9743ZM13.5002 3.83333C11.5663 3.83333 9.71162 4.60156 8.34417 5.96901C6.97671 7.33646 6.20849 9.19113 6.20849 11.125V16.6142C6.20846 17.0667 6.10311 17.5131 5.90078 17.9179L4.19453 21.3333H22.8072L21.101 17.9179C20.8981 17.5132 20.7923 17.0669 20.7918 16.6142V11.125C20.7918 9.19113 20.0236 7.33646 18.6561 5.96901C17.2887 4.60156 15.434 3.83333 13.5002 3.83333Z" fill="#0077B5"/>
</svg>
